<svg xmlns="http://www.w3.org/2000/svg" xmlns:xlink="http://www.w3.org/1999/xlink" width="200" zoomAndPan="magnify" viewBox="0 0 150 149.999998" height="200" preserveAspectRatio="xMidYMid meet" version="1.0"><defs><clipPath id="80eabe167f"><path d="M 16.125 0 L 133.875 0 L 133.875 150 L 16.125 150 Z M 16.125 0 " clip-rule="nonzero"/></clipPath></defs><path fill="#ffffff" d="M 119.941406 121.601562 L 84.796875 145.917969 C 84.082031 146.410156 83.332031 146.851562 82.550781 147.230469 C 81.769531 147.613281 80.960938 147.933594 80.132812 148.191406 C 79.300781 148.453125 78.457031 148.648438 77.597656 148.777344 C 76.738281 148.910156 75.871094 148.972656 75.003906 148.972656 C 74.132812 148.972656 73.265625 148.910156 72.40625 148.777344 C 71.546875 148.648438 70.703125 148.453125 69.871094 148.191406 C 69.042969 147.933594 68.234375 147.613281 67.453125 147.230469 C 66.671875 146.851562 65.921875 146.410156 65.207031 145.917969 L 30.066406 121.601562 C 28.074219 120.222656 26.277344 118.628906 24.675781 116.816406 C 23.070312 115.003906 21.707031 113.023438 20.582031 110.882812 C 19.457031 108.738281 18.605469 106.492188 18.027344 104.140625 C 17.449219 101.789062 17.160156 99.40625 17.15625 96.984375 L 17.15625 6.6875 C 17.15625 6.316406 17.195312 5.949219 17.265625 5.585938 C 17.339844 5.222656 17.445312 4.871094 17.585938 4.527344 C 17.730469 4.1875 17.902344 3.859375 18.109375 3.554688 C 18.316406 3.246094 18.546875 2.960938 18.8125 2.699219 C 19.074219 2.4375 19.355469 2.203125 19.664062 1.996094 C 19.972656 1.792969 20.296875 1.617188 20.640625 1.476562 C 20.980469 1.335938 21.335938 1.226562 21.699219 1.15625 C 22.0625 1.082031 22.429688 1.046875 22.796875 1.046875 L 127.203125 1.046875 C 127.570312 1.046875 127.9375 1.082031 128.300781 1.15625 C 128.664062 1.226562 129.015625 1.335938 129.359375 1.476562 C 129.703125 1.617188 130.027344 1.792969 130.335938 1.996094 C 130.640625 2.203125 130.925781 2.4375 131.1875 2.699219 C 131.449219 2.960938 131.683594 3.246094 131.890625 3.554688 C 132.09375 3.859375 132.269531 4.1875 132.410156 4.527344 C 132.550781 4.871094 132.660156 5.222656 132.730469 5.585938 C 132.804688 5.949219 132.839844 6.316406 132.839844 6.6875 L 132.839844 96.984375 C 132.839844 99.40625 132.550781 101.789062 131.972656 104.140625 C 131.394531 106.488281 130.542969 108.738281 129.417969 110.878906 C 128.296875 113.023438 126.933594 115.003906 125.328125 116.816406 C 123.726562 118.628906 121.929688 120.222656 119.941406 121.601562 Z M 119.941406 121.601562 " fill-opacity="1" fill-rule="nonzero"/><g clip-path="url(#80eabe167f)"><path fill="#1b1464" d="M 75.003906 149.984375 C 73.148438 149.988281 71.335938 149.714844 69.566406 149.164062 C 67.796875 148.617188 66.148438 147.816406 64.621094 146.761719 L 29.476562 122.449219 C 27.417969 121.023438 25.558594 119.375 23.902344 117.5 C 22.242188 115.625 20.832031 113.578125 19.667969 111.359375 C 18.503906 109.140625 17.625 106.816406 17.027344 104.386719 C 16.425781 101.957031 16.125 99.488281 16.125 96.984375 L 16.125 6.6875 C 16.125 6.25 16.167969 5.816406 16.253906 5.386719 C 16.339844 4.957031 16.46875 4.539062 16.636719 4.132812 C 16.804688 3.730469 17.007812 3.34375 17.25 2.980469 C 17.496094 2.617188 17.773438 2.28125 18.082031 1.972656 C 18.390625 1.660156 18.726562 1.386719 19.09375 1.140625 C 19.457031 0.898438 19.839844 0.691406 20.246094 0.523438 C 20.648438 0.355469 21.066406 0.230469 21.496094 0.144531 C 21.925781 0.0585938 22.359375 0.015625 22.796875 0.015625 L 127.203125 0.015625 C 127.640625 0.015625 128.074219 0.0585938 128.503906 0.144531 C 128.933594 0.230469 129.347656 0.355469 129.753906 0.523438 C 130.15625 0.691406 130.542969 0.898438 130.90625 1.140625 C 131.269531 1.386719 131.605469 1.660156 131.917969 1.972656 C 132.226562 2.28125 132.503906 2.617188 132.746094 2.980469 C 132.988281 3.34375 133.195312 3.730469 133.363281 4.132812 C 133.53125 4.539062 133.65625 4.957031 133.742188 5.386719 C 133.828125 5.816406 133.871094 6.25 133.871094 6.6875 L 133.871094 96.984375 C 133.871094 99.488281 133.574219 101.957031 132.972656 104.386719 C 132.375 106.816406 131.496094 109.140625 130.332031 111.359375 C 129.171875 113.574219 127.757812 115.621094 126.101562 117.5 C 124.441406 119.375 122.585938 121.023438 120.527344 122.449219 L 85.386719 146.765625 C 83.859375 147.816406 82.210938 148.617188 80.4375 149.167969 C 78.667969 149.714844 76.855469 149.988281 75.003906 149.984375 Z M 22.800781 2.082031 C 22.5 2.082031 22.199219 2.109375 21.902344 2.167969 C 21.605469 2.226562 21.320312 2.316406 21.039062 2.429688 C 20.757812 2.546875 20.492188 2.6875 20.242188 2.855469 C 19.992188 3.023438 19.757812 3.214844 19.542969 3.429688 C 19.328125 3.640625 19.136719 3.875 18.96875 4.125 C 18.800781 4.378906 18.660156 4.644531 18.542969 4.921875 C 18.425781 5.203125 18.339844 5.492188 18.28125 5.785156 C 18.222656 6.082031 18.191406 6.382812 18.191406 6.6875 L 18.191406 96.984375 C 18.191406 99.320312 18.472656 101.625 19.03125 103.894531 C 19.589844 106.160156 20.410156 108.332031 21.496094 110.398438 C 22.578125 112.46875 23.894531 114.378906 25.445312 116.128906 C 26.992188 117.882812 28.726562 119.421875 30.648438 120.75 L 65.796875 145.066406 C 66.46875 145.53125 67.175781 145.941406 67.910156 146.296875 C 68.644531 146.652344 69.402344 146.953125 70.183594 147.195312 C 70.964844 147.4375 71.757812 147.617188 72.566406 147.742188 C 73.375 147.863281 74.1875 147.925781 75.003906 147.925781 C 75.820312 147.925781 76.632812 147.863281 77.441406 147.742188 C 78.25 147.617188 79.042969 147.4375 79.824219 147.195312 C 80.601562 146.953125 81.359375 146.652344 82.097656 146.296875 C 82.832031 145.941406 83.535156 145.53125 84.210938 145.066406 L 119.351562 120.75 C 121.273438 119.421875 123.007812 117.882812 124.554688 116.128906 C 126.101562 114.378906 127.417969 112.46875 128.503906 110.398438 C 129.585938 108.332031 130.410156 106.160156 130.96875 103.894531 C 131.527344 101.625 131.808594 99.320312 131.808594 96.984375 L 131.808594 6.6875 C 131.808594 6.382812 131.777344 6.085938 131.71875 5.789062 C 131.660156 5.492188 131.570312 5.203125 131.457031 4.925781 C 131.339844 4.644531 131.199219 4.378906 131.03125 4.128906 C 130.863281 3.875 130.671875 3.644531 130.457031 3.429688 C 130.242188 3.214844 130.011719 3.027344 129.757812 2.859375 C 129.507812 2.691406 129.242188 2.546875 128.964844 2.433594 C 128.683594 2.316406 128.394531 2.226562 128.101562 2.167969 C 127.804688 2.109375 127.503906 2.082031 127.203125 2.082031 Z M 22.800781 2.082031 " fill-opacity="1" fill-rule="nonzero"/></g><path fill="#ff931e" d="M 27.039062 51.035156 L 27.039062 96.984375 C 27.039062 98.605469 27.234375 100.203125 27.621094 101.78125 C 28.007812 103.355469 28.578125 104.859375 29.332031 106.296875 C 30.082031 107.734375 30.996094 109.058594 32.070312 110.273438 C 33.144531 111.492188 34.347656 112.558594 35.683594 113.484375 L 60.546875 130.6875 L 60.546875 51.035156 Z M 27.039062 51.035156 " fill-opacity="1" fill-rule="nonzero"/><path fill="#1b1464" d="M 27.039062 10.921875 L 122.96875 10.921875 L 122.96875 41.164062 L 27.039062 41.164062 Z M 27.039062 10.921875 " fill-opacity="1" fill-rule="nonzero"/><path fill="#3fa9f5" d="M 89.457031 51.035156 L 89.457031 130.6875 L 114.320312 113.484375 C 115.65625 112.558594 116.859375 111.492188 117.933594 110.273438 C 119.007812 109.058594 119.921875 107.734375 120.675781 106.296875 C 121.425781 104.859375 121.996094 103.355469 122.386719 101.78125 C 122.773438 100.203125 122.96875 98.605469 122.96875 96.984375 L 122.96875 51.035156 Z M 89.457031 51.035156 " fill-opacity="1" fill-rule="nonzero"/><path fill="#1b1464" d="M 85.335938 44.9375 L 85.335938 133.542969 L 79.179688 137.800781 C 78.566406 138.222656 77.902344 138.546875 77.191406 138.769531 C 76.476562 138.992188 75.75 139.101562 75.003906 139.101562 C 74.257812 139.101562 73.527344 138.992188 72.816406 138.769531 C 72.101562 138.546875 71.4375 138.222656 70.824219 137.800781 L 64.664062 133.535156 L 64.664062 44.929688 Z M 85.335938 44.9375 " fill-opacity="1" fill-rule="nonzero"/><path fill="#1b1464" d="M 105.144531 92.019531 C 105.144531 92.199219 105.144531 92.375 105.144531 92.554688 C 105.085938 96.074219 104.429688 99.476562 103.175781 102.761719 C 101.921875 106.050781 100.144531 109.027344 97.84375 111.691406 C 97.113281 112.539062 96.335938 113.347656 95.515625 114.109375 C 95.371094 114.242188 95.230469 114.375 95.082031 114.503906 C 93.753906 115.691406 92.335938 116.75 90.820312 117.6875 C 89.304688 118.621094 87.71875 119.414062 86.058594 120.066406 C 84.402344 120.71875 82.703125 121.21875 80.957031 121.566406 C 79.210938 121.917969 77.445312 122.109375 75.667969 122.144531 C 75.449219 122.144531 75.230469 122.144531 75.011719 122.144531 C 73.867188 122.144531 72.730469 122.078125 71.59375 121.949219 C 70.457031 121.820312 69.332031 121.625 68.21875 121.367188 C 67.105469 121.109375 66.007812 120.789062 64.933594 120.40625 C 63.855469 120.023438 62.800781 119.582031 61.773438 119.078125 C 60.746094 118.578125 59.753906 118.019531 58.789062 117.402344 C 57.824219 116.789062 56.898438 116.121094 56.011719 115.398438 C 55.125 114.679688 54.28125 113.910156 53.480469 113.09375 C 52.679688 112.277344 51.929688 111.414062 51.226562 110.515625 C 50.523438 109.613281 49.875 108.671875 49.28125 107.695312 C 48.683594 106.71875 48.148438 105.714844 47.664062 104.675781 C 47.183594 103.640625 46.765625 102.578125 46.402344 101.492188 C 46.042969 100.40625 45.746094 99.304688 45.511719 98.1875 C 45.277344 97.066406 45.105469 95.941406 45 94.800781 C 44.890625 93.664062 44.851562 92.523438 44.875 91.378906 C 44.898438 90.234375 44.984375 89.097656 45.136719 87.964844 C 45.289062 86.832031 45.507812 85.710938 45.785156 84.601562 C 45.828125 84.429688 45.875 84.257812 45.917969 84.089844 C 46.414062 82.277344 47.074219 80.523438 47.898438 78.835938 C 48.722656 77.144531 49.695312 75.546875 50.816406 74.035156 C 51.941406 72.527344 53.191406 71.136719 54.574219 69.863281 C 55.957031 68.585938 57.445312 67.453125 59.039062 66.457031 C 59.65625 66.066406 60.292969 65.699219 60.941406 65.355469 C 61.148438 65.246094 61.355469 65.148438 61.5625 65.039062 C 63.761719 63.941406 66.0625 63.125 68.464844 62.59375 C 70.617188 62.117188 72.796875 61.882812 75.003906 61.882812 L 75.523438 61.882812 C 76.5 61.898438 77.472656 61.960938 78.445312 62.074219 C 79.414062 62.183594 80.375 62.34375 81.332031 62.546875 C 82.285156 62.75 83.230469 63 84.160156 63.296875 C 85.089844 63.59375 86.003906 63.933594 86.902344 64.320312 C 87.796875 64.703125 88.675781 65.132812 89.53125 65.601562 C 90.386719 66.074219 91.21875 66.582031 92.023438 67.136719 C 92.828125 67.6875 93.605469 68.273438 94.355469 68.902344 C 95.105469 69.527344 95.820312 70.191406 96.503906 70.886719 C 97.1875 71.582031 97.839844 72.3125 98.453125 73.070312 C 99.066406 73.828125 99.640625 74.617188 100.179688 75.433594 C 100.714844 76.246094 101.210938 77.085938 101.667969 77.953125 C 102.121094 78.816406 102.535156 79.699219 102.90625 80.601562 C 103.273438 81.507812 103.597656 82.425781 103.878906 83.359375 C 104.160156 84.296875 104.394531 85.242188 104.582031 86.203125 C 104.769531 87.160156 104.910156 88.125 105.003906 89.097656 C 105.097656 90.070312 105.144531 91.042969 105.144531 92.019531 Z M 105.144531 92.019531 " fill-opacity="1" fill-rule="nonzero"/><path fill="#ffffff" d="M 55.710938 92.625 C 54.808594 94.851562 54.214844 96.320312 53.636719 98.933594 C 54.84375 100.984375 56.191406 102.9375 57.675781 104.796875 C 59.398438 104.824219 61.347656 104.84375 63.472656 104.863281 C 64.21875 102.871094 65.097656 100.9375 66.109375 99.066406 C 64.683594 97.011719 63.371094 94.886719 62.164062 92.695312 C 59.789062 92.679688 57.625 92.65625 55.710938 92.625 Z M 55.710938 92.625 " fill-opacity="1" fill-rule="nonzero"/><path fill="#ffffff" d="M 78.546875 105.265625 C 76.414062 108.214844 76.128906 108.625 74.9375 110.34375 C 75.902344 111.6875 76.773438 113.085938 77.550781 114.542969 C 79.226562 114.542969 80.835938 114.527344 82.34375 114.515625 L 82.375 114.488281 C 82.949219 113.964844 83.421875 113.53125 83.859375 113.121094 C 84.554688 112.464844 85.511719 111.542969 86.777344 110.273438 C 86.492188 108.265625 86.058594 107.054688 85.402344 105.226562 C 83.25 105.242188 80.945312 105.257812 78.546875 105.265625 Z M 78.546875 105.265625 " fill-opacity="1" fill-rule="nonzero"/><path fill="#ffffff" d="M 74.394531 86.121094 L 72.742188 86.121094 C 70.558594 86.121094 68.453125 86.121094 66.460938 86.109375 C 64.492188 89.019531 63.667969 90.46875 62.523438 92.472656 C 64 95.160156 64.929688 96.546875 66.472656 98.859375 C 68.46875 98.859375 70.570312 98.875 72.757812 98.875 L 74.410156 98.875 C 76.632812 95.480469 77.09375 94.730469 78.492188 92.5 C 77.207031 90.433594 76.535156 89.398438 74.394531 86.121094 Z M 74.394531 86.121094 " fill-opacity="1" fill-rule="nonzero"/><path fill="#ffffff" d="M 85.367188 79.589844 C 85.367188 79.570312 85.382812 79.550781 85.390625 79.53125 C 85.59375 78.96875 85.757812 78.496094 85.902344 78.039062 C 86.277344 76.84375 86.554688 75.625 86.730469 74.386719 C 84.890625 72.503906 83.851562 71.535156 82.285156 70.066406 C 80.777344 70.082031 79.171875 70.089844 77.496094 70.097656 C 76.671875 71.757812 75.964844 72.832031 74.894531 74.457031 C 75.890625 75.945312 76.398438 76.671875 78.515625 79.621094 C 80.910156 79.625 83.210938 79.609375 85.367188 79.589844 Z M 85.367188 79.589844 " fill-opacity="1" fill-rule="nonzero"/><path fill="#ffffff" d="M 72.75 85.699219 L 74.402344 85.699219 C 76.09375 83.136719 76.882812 81.914062 78.136719 79.828125 C 76.070312 76.90625 75.53125 76.128906 74.542969 74.625 L 73.21875 74.625 C 71.46875 74.625 69.785156 74.625 68.1875 74.613281 C 66.386719 76.695312 65.449219 77.785156 63.832031 79.800781 C 64.582031 81.824219 65.472656 83.785156 66.5 85.683594 C 68.480469 85.695312 70.574219 85.699219 72.75 85.699219 Z M 72.75 85.699219 " fill-opacity="1" fill-rule="nonzero"/><path fill="#ffffff" d="M 97.277344 78.273438 C 96.128906 76.40625 94.761719 74.707031 93.183594 73.183594 C 91.605469 71.65625 89.863281 70.351562 87.957031 69.265625 C 86.050781 68.179688 84.039062 67.347656 81.921875 66.769531 C 79.804688 66.191406 77.648438 65.886719 75.453125 65.851562 L 75.003906 65.851562 C 70.894531 65.847656 67.003906 66.761719 63.328125 68.59375 C 63.148438 68.683594 62.96875 68.773438 62.792969 68.867188 C 62.230469 69.167969 61.675781 69.488281 61.140625 69.820312 C 59.757812 70.6875 58.464844 71.671875 57.265625 72.78125 C 56.0625 73.886719 54.976562 75.09375 54 76.402344 C 53.027344 77.710938 52.183594 79.101562 51.464844 80.570312 C 50.75 82.035156 50.175781 83.554688 49.746094 85.132812 C 49.707031 85.28125 49.667969 85.429688 49.628906 85.578125 C 49.386719 86.539062 49.195312 87.511719 49.0625 88.496094 C 48.925781 89.480469 48.847656 90.472656 48.828125 91.464844 C 48.804688 92.457031 48.839844 93.449219 48.933594 94.4375 C 49.023438 95.425781 49.171875 96.40625 49.375 97.378906 C 49.578125 98.351562 49.835938 99.308594 50.148438 100.253906 C 50.460938 101.195312 50.824219 102.117188 51.242188 103.019531 C 51.660156 103.921875 52.125 104.796875 52.644531 105.644531 C 53.160156 106.492188 53.722656 107.308594 54.332031 108.09375 C 54.945312 108.878906 55.597656 109.625 56.292969 110.335938 C 56.988281 111.042969 57.71875 111.710938 58.492188 112.339844 C 59.261719 112.964844 60.066406 113.546875 60.902344 114.078125 C 61.742188 114.613281 62.605469 115.101562 63.5 115.535156 C 64.390625 115.972656 65.304688 116.355469 66.242188 116.6875 C 67.179688 117.019531 68.128906 117.296875 69.097656 117.519531 C 70.066406 117.742188 71.042969 117.910156 72.03125 118.023438 C 73.019531 118.136719 74.007812 118.191406 75.003906 118.191406 C 75.191406 118.191406 75.382812 118.191406 75.570312 118.191406 C 78.6875 118.128906 81.695312 117.523438 84.59375 116.382812 C 87.496094 115.242188 90.109375 113.628906 92.429688 111.550781 C 92.558594 111.4375 92.683594 111.324219 92.804688 111.210938 C 94.097656 110.011719 95.257812 108.695312 96.285156 107.265625 C 97.308594 105.832031 98.183594 104.3125 98.902344 102.703125 C 99.621094 101.097656 100.171875 99.433594 100.550781 97.710938 C 100.933594 95.992188 101.140625 94.25 101.171875 92.488281 C 101.171875 92.335938 101.171875 92.183594 101.171875 92.023438 C 101.175781 89.597656 100.847656 87.214844 100.1875 84.878906 C 99.523438 82.539062 98.554688 80.339844 97.277344 78.273438 Z M 99.839844 92.460938 L 99.089844 92.480469 C 98.308594 94.578125 97.742188 96.09375 96.136719 98.882812 C 96.503906 100.757812 96.757812 102.050781 96.722656 104.082031 C 95.898438 105.5625 94.9375 106.945312 93.832031 108.230469 C 93.230469 108.867188 92.625 109.46875 91.917969 110.183594 C 91.917969 110.199219 91.917969 110.210938 91.917969 110.222656 C 91.800781 110.332031 91.683594 110.441406 91.5625 110.546875 L 91.574219 110.496094 L 91.605469 110.351562 C 90.25 110.375 88.699219 110.402344 86.992188 110.421875 C 85.566406 111.832031 84.535156 112.847656 82.527344 114.636719 C 82.527344 115.046875 82.527344 115.390625 82.5 115.707031 C 80.242188 116.421875 77.925781 116.800781 75.554688 116.851562 C 75.941406 116.320312 76.417969 115.703125 77.269531 114.667969 C 76.460938 113.222656 75.5625 111.835938 74.578125 110.503906 L 73.269531 110.503906 C 71.542969 110.503906 69.878906 110.503906 68.296875 110.492188 C 67.78125 112.03125 67.441406 113.046875 67.371094 114.65625 C 68.015625 115.195312 68.589844 115.675781 69.21875 116.1875 C 67.554688 115.792969 65.953125 115.230469 64.410156 114.5 C 65.234375 114.511719 66.125 114.519531 67.0625 114.527344 C 67.078125 113.953125 67.140625 113.382812 67.246094 112.820312 C 67.382812 112.105469 67.574219 111.410156 67.816406 110.726562 C 67.855469 110.59375 67.898438 110.464844 67.941406 110.332031 C 65.851562 108.015625 64.886719 106.851562 63.550781 105.238281 C 61.441406 105.222656 59.507812 105.199219 57.800781 105.175781 C 57.550781 107.496094 57.71875 108.566406 57.988281 110.132812 C 56.328125 108.574219 54.90625 106.824219 53.730469 104.875 C 52.550781 102.925781 51.65625 100.855469 51.050781 98.664062 C 51.730469 98.683594 52.496094 98.699219 53.320312 98.71875 C 53.894531 96.097656 54.484375 94.625 55.386719 92.398438 C 54.492188 90.316406 53.800781 88.171875 53.320312 85.957031 C 52.429688 85.9375 51.628906 85.917969 50.917969 85.898438 C 50.953125 85.757812 50.988281 85.613281 51.027344 85.484375 C 51.730469 85.507812 52.523438 85.527344 53.402344 85.542969 C 54.609375 83.511719 55.953125 81.574219 57.433594 79.730469 C 57.289062 77.664062 57.226562 76.621094 57.660156 74.496094 L 57.390625 74.496094 C 58.738281 73.144531 60.21875 71.960938 61.835938 70.949219 C 60.265625 72.210938 59.265625 73.140625 57.96875 74.339844 C 57.546875 76.457031 57.625 77.488281 57.78125 79.554688 C 59.492188 79.578125 61.421875 79.601562 63.53125 79.617188 C 65.171875 77.59375 66.109375 76.519531 67.910156 74.453125 C 67.191406 72.34375 67.125 71.445312 67.023438 70.082031 C 65.714844 70.082031 64.503906 70.058594 63.414062 70.046875 C 63.578125 69.957031 63.75 69.867188 63.921875 69.785156 C 64.914062 69.796875 66.003906 69.808594 67.175781 69.816406 C 68 69.105469 68.726562 68.492188 69.609375 67.769531 C 71.386719 67.378906 73.183594 67.179688 75.003906 67.183594 L 75.433594 67.183594 C 75.886719 67.839844 76.382812 68.515625 77.453125 69.832031 C 79.105469 69.832031 80.671875 69.816406 82.152344 69.804688 C 82.167969 69.269531 82.148438 68.738281 82.097656 68.203125 C 85.703125 69.28125 88.894531 71.082031 91.679688 73.609375 C 91.738281 73.828125 91.796875 74.058594 91.859375 74.304688 C 93.386719 75.769531 94.816406 77.324219 96.144531 78.972656 C 97.359375 80.933594 98.28125 83.019531 98.90625 85.238281 C 99.535156 87.457031 99.847656 89.714844 99.84375 92.019531 C 99.84375 92.167969 99.84375 92.316406 99.839844 92.460938 Z M 99.839844 92.460938 " fill-opacity="1" fill-rule="nonzero"/><path fill="#ffffff" d="M 91.738281 74.476562 C 90.367188 74.503906 88.796875 74.527344 87.070312 74.550781 C 86.832031 76.34375 86.390625 78.089844 85.746094 79.78125 C 87.371094 81.882812 88.355469 83.152344 89.996094 85.605469 C 92.144531 85.578125 94.097656 85.546875 95.800781 85.511719 C 96.214844 83.425781 96.46875 82.046875 96.378906 79.609375 C 94.941406 77.796875 93.394531 76.085938 91.738281 74.476562 Z M 91.738281 74.476562 " fill-opacity="1" fill-rule="nonzero"/><path fill="#ffffff" d="M 78.933594 92.726562 C 77.5625 94.921875 77.050781 95.746094 74.855469 99.082031 C 76.664062 101.8125 77.398438 102.941406 78.574219 104.890625 C 80.988281 104.890625 83.308594 104.867188 85.476562 104.847656 C 87.035156 102.816406 88.0625 101.476562 89.703125 98.992188 C 88.78125 96.835938 87.75 94.730469 86.605469 92.679688 C 84.195312 92.699219 81.617188 92.71875 78.933594 92.726562 Z M 78.933594 92.726562 " fill-opacity="1" fill-rule="nonzero"/><path fill="#ffffff" d="M 90.050781 86.03125 C 88.996094 88.625 88.191406 90.144531 86.984375 92.449219 C 88.128906 94.503906 89.15625 96.613281 90.066406 98.777344 C 92.222656 98.753906 94.183594 98.722656 95.894531 98.6875 C 97.5 95.878906 98.066406 94.359375 98.847656 92.261719 C 97.875 89.523438 97.078125 88.09375 95.875 85.9375 C 94.167969 85.972656 92.207031 86.003906 90.050781 86.03125 Z M 90.050781 86.03125 " fill-opacity="1" fill-rule="nonzero"/><path fill="#ffffff" d="M 74.855469 47.828125 L 76.839844 51.851562 L 81.277344 52.496094 L 78.066406 55.628906 L 78.824219 60.050781 L 74.855469 57.960938 L 70.882812 60.050781 L 71.640625 55.628906 L 68.429688 52.496094 L 72.867188 51.851562 Z M 74.855469 47.828125 " fill-opacity="1" fill-rule="nonzero"/><path fill="#ffffff" d="M 106.210938 53.941406 L 108.363281 58.296875 L 113.171875 58.996094 L 109.691406 62.386719 L 110.511719 67.175781 L 106.210938 64.914062 L 101.914062 67.175781 L 102.734375 62.386719 L 99.253906 58.996094 L 104.0625 58.296875 Z M 106.210938 53.941406 " fill-opacity="1" fill-rule="nonzero"/><path fill="#ffffff" d="M 43.792969 53.941406 L 45.945312 58.296875 L 50.75 58.996094 L 47.273438 62.386719 L 48.09375 67.175781 L 43.792969 64.914062 L 39.492188 67.175781 L 40.3125 62.386719 L 36.832031 58.996094 L 41.640625 58.296875 Z M 43.792969 53.941406 " fill-opacity="1" fill-rule="nonzero"/></svg>