<svg xmlns="http://www.w3.org/2000/svg" xmlns:xlink="http://www.w3.org/1999/xlink" width="200" zoomAndPan="magnify" viewBox="0 0 150 149.999998" height="200" preserveAspectRatio="xMidYMid meet" version="1.0"><defs><clipPath id="ec460e5741"><path d="M 45 45 L 105 45 L 105 105 L 45 105 Z M 45 45 " clip-rule="nonzero"/></clipPath><clipPath id="a6aa04e49f"><path d="M 45.703125 75 C 45.703125 91.171875 58.828125 104.296875 75 104.296875 C 91.171875 104.296875 104.296875 91.171875 104.296875 75 C 104.296875 58.828125 91.171875 45.703125 75 45.703125 C 58.828125 45.703125 45.703125 58.828125 45.703125 75 Z M 45.703125 75 " clip-rule="nonzero"/></clipPath><radialGradient gradientTransform="matrix(-1, 0, 0, 1, -1793.085869, 25.333589)" gradientUnits="userSpaceOnUse" r="29.217186" cx="-1868.08832" id="050ad380ea" cy="49.666405" fx="-1868.08832" fy="49.666405"><stop stop-opacity="1" stop-color="rgb(99.821472%, 99.821472%, 99.821472%)" offset="0"/><stop stop-opacity="1" stop-color="rgb(99.488831%, 99.488831%, 99.488831%)" offset="0.03125"/><stop stop-opacity="1" stop-color="rgb(99.177551%, 99.177551%, 99.177551%)" offset="0.0585938"/><stop stop-opacity="1" stop-color="rgb(98.866272%, 98.866272%, 98.866272%)" offset="0.0859375"/><stop stop-opacity="1" stop-color="rgb(98.554993%, 98.554993%, 98.554993%)" offset="0.113281"/><stop stop-opacity="1" stop-color="rgb(98.266602%, 98.266602%, 98.266602%)" offset="0.140625"/><stop stop-opacity="1" stop-color="rgb(97.999573%, 97.999573%, 97.999573%)" offset="0.164062"/><stop stop-opacity="1" stop-color="rgb(97.73407%, 97.73407%, 97.73407%)" offset="0.1875"/><stop stop-opacity="1" stop-color="rgb(97.467041%, 97.467041%, 97.467041%)" offset="0.210938"/><stop stop-opacity="1" stop-color="rgb(97.200012%, 97.200012%, 97.200012%)" offset="0.234375"/><stop stop-opacity="1" stop-color="rgb(96.955872%, 96.955872%, 96.955872%)" offset="0.257812"/><stop stop-opacity="1" stop-color="rgb(96.734619%, 96.734619%, 96.734619%)" offset="0.277344"/><stop stop-opacity="1" stop-color="rgb(96.511841%, 96.511841%, 96.511841%)" offset="0.296875"/><stop stop-opacity="1" stop-color="rgb(96.290588%, 96.290588%, 96.290588%)" offset="0.316406"/><stop stop-opacity="1" stop-color="rgb(96.06781%, 96.06781%, 96.06781%)" offset="0.335938"/><stop stop-opacity="1" stop-color="rgb(95.846558%, 95.846558%, 95.846558%)" offset="0.355469"/><stop stop-opacity="1" stop-color="rgb(95.623779%, 95.623779%, 95.623779%)" offset="0.375"/><stop stop-opacity="1" stop-color="rgb(95.423889%, 95.423889%, 95.423889%)" offset="0.394531"/><stop stop-opacity="1" stop-color="rgb(95.246887%, 95.246887%, 95.246887%)" offset="0.410156"/><stop stop-opacity="1" stop-color="rgb(95.068359%, 95.068359%, 95.068359%)" offset="0.425781"/><stop stop-opacity="1" stop-color="rgb(94.802856%, 94.802856%, 94.802856%)" offset="0.441406"/><stop stop-opacity="1" stop-color="rgb(94.447327%, 94.447327%, 94.447327%)" offset="0.472656"/><stop stop-opacity="1" stop-color="rgb(94.114685%, 94.114685%, 94.114685%)" offset="0.503906"/><stop stop-opacity="1" stop-color="rgb(93.803406%, 93.803406%, 93.803406%)" offset="0.53125"/><stop stop-opacity="1" stop-color="rgb(93.492126%, 93.492126%, 93.492126%)" offset="0.558594"/><stop stop-opacity="1" stop-color="rgb(93.203735%, 93.203735%, 93.203735%)" offset="0.585938"/><stop stop-opacity="1" stop-color="rgb(92.936707%, 92.936707%, 92.936707%)" offset="0.609375"/><stop stop-opacity="1" stop-color="rgb(92.692566%, 92.692566%, 92.692566%)" offset="0.632812"/><stop stop-opacity="1" stop-color="rgb(92.471313%, 92.471313%, 92.471313%)" offset="0.652344"/><stop stop-opacity="1" stop-color="rgb(92.248535%, 92.248535%, 92.248535%)" offset="0.671875"/><stop stop-opacity="1" stop-color="rgb(92.048645%, 92.048645%, 92.048645%)" offset="0.691406"/><stop stop-opacity="1" stop-color="rgb(91.871643%, 91.871643%, 91.871643%)" offset="0.707031"/><stop stop-opacity="1" stop-color="rgb(91.604614%, 91.604614%, 91.604614%)" offset="0.722656"/><stop stop-opacity="1" stop-color="rgb(91.271973%, 91.271973%, 91.271973%)" offset="0.753906"/><stop stop-opacity="1" stop-color="rgb(90.960693%, 90.960693%, 90.960693%)" offset="0.78125"/><stop stop-opacity="1" stop-color="rgb(90.672302%, 90.672302%, 90.672302%)" offset="0.808594"/><stop stop-opacity="1" stop-color="rgb(90.428162%, 90.428162%, 90.428162%)" offset="0.832031"/><stop stop-opacity="1" stop-color="rgb(90.228271%, 90.228271%, 90.228271%)" offset="0.851562"/><stop stop-opacity="1" stop-color="rgb(89.961243%, 89.961243%, 89.961243%)" offset="0.867188"/><stop stop-opacity="1" stop-color="rgb(89.649963%, 89.649963%, 89.649963%)" offset="0.898438"/><stop stop-opacity="1" stop-color="rgb(89.405823%, 89.405823%, 89.405823%)" offset="0.921875"/><stop stop-opacity="1" stop-color="rgb(89.14032%, 89.14032%, 89.14032%)" offset="0.941406"/><stop stop-opacity="1" stop-color="rgb(88.806152%, 88.806152%, 88.806152%)" offset="0.96875"/><stop stop-opacity="1" stop-color="rgb(88.62915%, 88.62915%, 88.62915%)" offset="1"/></radialGradient></defs><path fill="#010068" d="M 75 150 C 33.515625 150 0 116.484375 0 75 C 0 33.515625 33.515625 0 75 0 C 116.484375 0 150 33.515625 150 75 C 150 116.484375 116.484375 150 75 150 Z M 75 150 " fill-opacity="1" fill-rule="nonzero"/><path fill="#ffffff" d="M 75 145.3125 C 36.328125 145.3125 4.6875 113.671875 4.6875 75 C 4.6875 36.328125 36.328125 4.6875 75 4.6875 C 113.671875 4.6875 145.3125 36.328125 145.3125 75 C 145.3125 113.671875 113.671875 145.3125 75 145.3125 Z M 75 145.3125 " fill-opacity="1" fill-rule="nonzero"/><path fill="#61b337" d="M 75 35.15625 C 93.75 35.15625 109.453125 48.046875 113.671875 65.625 L 139.921875 65.625 C 135.234375 33.75 108.046875 9.375 75 9.375 C 41.953125 9.375 14.765625 33.75 10.078125 65.625 L 36.328125 65.625 C 40.546875 48.046875 56.25 35.15625 75 35.15625 Z M 75 114.84375 C 56.25 114.84375 40.546875 101.953125 36.328125 84.375 L 10.078125 84.375 C 14.765625 116.015625 42.1875 140.625 75 140.625 C 107.8125 140.625 135.234375 116.25 139.921875 84.375 L 113.671875 84.375 C 109.453125 101.953125 93.75 114.84375 75 114.84375 Z M 75 114.84375 " fill-opacity="1" fill-rule="nonzero"/><path fill="#010068" d="M 17.34375 76.875 L 14.0625 76.875 L 14.0625 76.40625 L 14.296875 76.40625 C 14.53125 76.40625 14.53125 76.40625 14.53125 76.171875 L 14.53125 72.890625 L 14.0625 72.890625 L 14.0625 72.1875 L 17.34375 72.1875 L 17.34375 73.359375 L 16.640625 73.359375 L 16.640625 73.125 C 16.640625 73.125 16.640625 72.890625 16.640625 72.890625 C 16.640625 72.890625 16.640625 72.890625 16.40625 72.890625 L 15.46875 72.890625 L 15.46875 74.0625 L 17.109375 74.0625 L 17.109375 75 L 15.46875 75 L 15.46875 76.40625 L 16.40625 76.40625 C 16.40625 76.40625 16.640625 76.40625 16.640625 76.40625 C 16.640625 76.40625 16.640625 76.40625 16.640625 76.171875 L 16.640625 75.9375 L 17.34375 75.9375 Z M 17.34375 76.875 " fill-opacity="1" fill-rule="nonzero"/><path fill="#010068" d="M 20.859375 75.703125 C 20.859375 75.46875 20.625 75.234375 20.390625 75.234375 C 20.390625 75 20.15625 75 20.15625 75 C 19.21875 74.765625 18.75 74.53125 18.75 73.59375 C 18.75 72.65625 19.453125 72.1875 20.390625 72.1875 C 20.859375 72.1875 21.328125 72.1875 21.796875 72.421875 L 21.796875 73.59375 L 21.09375 73.59375 L 21.09375 73.125 C 21.09375 73.125 21.09375 72.890625 21.09375 72.890625 C 21.09375 72.890625 20.859375 72.65625 20.625 72.65625 C 20.15625 72.65625 19.921875 72.890625 19.921875 73.359375 C 19.921875 73.59375 19.921875 73.59375 20.15625 73.828125 C 20.15625 73.828125 20.390625 74.0625 20.390625 74.0625 C 21.328125 74.296875 22.03125 74.53125 22.03125 75.703125 C 22.03125 76.171875 21.796875 76.40625 21.5625 76.640625 C 20.859375 77.109375 19.6875 77.109375 18.984375 76.640625 L 18.984375 75.46875 L 19.6875 75.46875 L 19.6875 75.9375 C 19.6875 75.9375 19.6875 76.171875 19.6875 76.171875 C 19.6875 76.171875 19.6875 76.171875 19.921875 76.171875 C 20.15625 76.40625 20.859375 76.40625 20.859375 75.703125 Z M 20.859375 75.703125 " fill-opacity="1" fill-rule="nonzero"/><path fill="#010068" d="M 24.375 76.171875 L 24.375 72.890625 L 23.90625 72.890625 C 23.90625 72.890625 23.671875 72.890625 23.671875 73.125 L 23.671875 73.359375 L 22.96875 73.359375 L 22.96875 72.1875 L 26.71875 72.1875 L 26.71875 73.359375 L 26.015625 73.359375 L 26.015625 73.125 C 26.015625 73.125 26.015625 72.890625 26.015625 72.890625 C 26.015625 72.890625 26.015625 72.890625 25.78125 72.890625 L 25.3125 72.890625 L 25.3125 76.171875 L 25.78125 76.171875 L 25.78125 76.875 L 23.90625 76.875 L 23.90625 76.40625 L 24.375 76.171875 C 24.140625 76.40625 24.375 76.40625 24.375 76.171875 Z M 24.375 76.171875 " fill-opacity="1" fill-rule="nonzero"/><path fill="#010068" d="M 27.65625 76.875 L 27.65625 76.40625 L 27.890625 76.40625 C 28.125 76.40625 28.125 76.40625 28.125 76.171875 L 28.125 72.890625 L 27.65625 72.890625 L 27.65625 72.1875 L 29.53125 72.1875 C 30.9375 72.1875 31.640625 72.890625 31.640625 74.296875 C 31.640625 75.9375 30.703125 76.875 29.53125 76.875 Z M 28.828125 72.890625 L 28.828125 76.171875 L 29.53125 76.171875 C 30.46875 76.171875 30.703125 75.46875 30.703125 74.53125 C 30.703125 73.359375 30.234375 72.890625 29.296875 72.890625 Z M 28.828125 72.890625 " fill-opacity="1" fill-rule="nonzero"/><path fill="#010068" d="M 119.296875 76.875 L 119.296875 76.40625 L 120.703125 74.53125 C 120.9375 74.296875 120.9375 74.296875 120.9375 74.0625 C 120.9375 73.828125 120.9375 73.828125 121.171875 73.828125 C 121.171875 73.828125 121.171875 73.59375 121.171875 73.359375 C 121.171875 73.125 121.171875 73.125 120.9375 72.890625 C 120.9375 72.890625 120.703125 72.65625 120.46875 72.65625 C 120.234375 72.65625 120.234375 72.65625 120 72.65625 C 120 72.65625 119.765625 72.65625 119.765625 72.65625 C 119.765625 72.65625 119.765625 72.65625 119.765625 72.890625 L 119.765625 73.359375 L 119.0625 73.359375 L 119.0625 72.65625 C 119.53125 72.421875 120 72.421875 120.46875 72.421875 C 120.9375 72.421875 121.171875 72.421875 121.40625 72.65625 C 121.640625 72.890625 121.640625 73.125 121.640625 73.59375 C 121.640625 74.0625 121.875 74.53125 121.40625 75 L 120.234375 76.40625 L 122.109375 76.40625 L 122.109375 77.109375 L 119.296875 77.109375 Z M 119.296875 76.875 " fill-opacity="1" fill-rule="nonzero"/><path fill="#010068" d="M 124.921875 72.421875 C 126.09375 72.421875 126.5625 73.125 126.5625 74.765625 C 126.5625 75.703125 126.328125 76.171875 126.09375 76.640625 C 125.859375 77.109375 125.390625 77.109375 124.921875 77.109375 C 124.453125 77.109375 123.984375 76.875 123.75 76.640625 C 123.515625 76.171875 123.28125 75.703125 123.28125 74.765625 C 123.28125 73.828125 123.515625 73.359375 123.75 72.890625 C 123.984375 72.65625 124.453125 72.421875 124.921875 72.421875 Z M 124.453125 75.9375 C 124.6875 76.171875 124.6875 76.40625 124.921875 76.40625 C 125.15625 76.40625 125.390625 76.171875 125.625 75.9375 C 125.859375 75.703125 125.859375 75.234375 125.859375 74.53125 C 125.859375 73.828125 125.859375 73.59375 125.625 73.125 C 125.390625 72.890625 125.390625 72.65625 124.921875 72.65625 C 124.6875 72.65625 124.453125 72.890625 124.21875 73.125 C 124.21875 73.59375 124.21875 74.0625 124.21875 74.765625 C 124.21875 75.234375 124.21875 75.703125 124.453125 75.9375 Z M 124.453125 75.9375 " fill-opacity="1" fill-rule="nonzero"/><path fill="#010068" d="M 128.90625 76.171875 L 128.90625 73.359375 L 127.96875 73.828125 L 127.734375 73.359375 L 128.90625 72.65625 L 129.609375 72.65625 L 129.609375 76.640625 L 130.3125 76.640625 L 130.3125 77.34375 L 127.96875 77.34375 L 127.96875 76.875 L 128.90625 76.171875 C 128.90625 76.40625 128.90625 76.40625 128.90625 76.171875 Z M 128.90625 76.171875 " fill-opacity="1" fill-rule="nonzero"/><path fill="#010068" d="M 134.53125 73.125 L 132.890625 73.125 L 132.65625 74.296875 C 133.125 74.296875 133.59375 74.53125 133.828125 74.765625 C 134.0625 75 134.296875 75.46875 134.296875 75.703125 C 134.296875 76.171875 134.0625 76.40625 133.828125 76.640625 C 133.59375 76.875 133.125 77.109375 132.65625 77.109375 C 132.421875 77.109375 132.1875 77.109375 131.953125 77.109375 C 131.71875 77.109375 131.484375 76.875 131.25 76.875 L 131.484375 76.171875 C 131.953125 76.40625 132.1875 76.40625 132.65625 76.40625 C 133.125 76.40625 133.359375 76.171875 133.359375 75.703125 C 133.359375 75.234375 132.890625 74.765625 131.71875 74.765625 L 131.953125 72.421875 L 133.359375 72.421875 C 133.359375 72.421875 133.59375 72.421875 133.59375 72.1875 L 133.59375 71.953125 L 134.296875 71.953125 L 134.296875 73.125 Z M 134.53125 73.125 " fill-opacity="1" fill-rule="nonzero"/><path stroke-linecap="butt" transform="matrix(2.34375, 0, 0, 2.34375, -2.343749, -2.343748)" fill="none" stroke-linejoin="miter" d="M 33.000001 61.000003 C 17.6 61.000003 5 48.400002 5 33.000001 C 5 17.6 17.6 4.999999 33.000001 4.999999 C 48.400002 4.999999 61.000003 17.6 61.000003 33.000001 C 61.000003 48.400002 48.400002 61.000003 33.000001 61.000003 Z M 33.000001 61.000003 " stroke="#010068" stroke-width="1" stroke-opacity="1" stroke-miterlimit="10"/><path stroke-linecap="butt" transform="matrix(2.34375, 0, 0, 2.34375, -2.343749, -2.343748)" fill="none" stroke-linejoin="miter" d="M 33.000001 50.100002 C 23.600001 50.100002 15.9 42.400002 15.9 33.000001 C 15.9 23.6 23.600001 15.9 33.000001 15.9 C 42.400002 15.9 50.100002 23.6 50.100002 33.000001 C 50.100002 42.400002 42.400002 50.100002 33.000001 50.100002 Z M 33.000001 50.100002 " stroke="#010068" stroke-width="1" stroke-opacity="1" stroke-miterlimit="10"/><path fill="#ffffff" d="M 29.296875 57.890625 L 28.125 57.421875 L 28.359375 56.953125 C 28.359375 56.71875 28.359375 56.484375 28.125 56.484375 L 22.03125 53.671875 L 21.5625 54.375 L 20.390625 53.90625 L 23.4375 47.578125 L 25.546875 48.515625 L 25.078125 49.921875 L 24.609375 49.6875 C 24.375 49.6875 24.375 49.6875 24.375 49.6875 C 24.375 49.6875 24.140625 49.6875 24.140625 49.921875 L 22.96875 52.265625 L 25.3125 53.4375 L 26.953125 50.15625 L 28.359375 50.859375 L 26.71875 54.140625 L 29.296875 55.3125 L 30 54.140625 L 31.171875 54.609375 Z M 29.296875 57.890625 " fill-opacity="1" fill-rule="nonzero"/><path fill="#ffffff" d="M 28.125 40.3125 C 31.171875 36.09375 39.609375 41.484375 36.09375 46.40625 C 34.453125 48.75 31.875 48.515625 29.53125 46.875 C 26.71875 45 26.484375 42.421875 28.125 40.3125 Z M 30.46875 45.46875 C 32.34375 46.875 33.984375 46.875 34.921875 45.703125 C 36.5625 43.59375 33.515625 41.25 31.40625 40.78125 C 29.296875 40.078125 26.953125 42.890625 30.46875 45.46875 Z M 30.46875 45.46875 " fill-opacity="1" fill-rule="nonzero"/><path fill="#ffffff" d="M 36.5625 30.9375 C 37.5 30.234375 38.4375 29.765625 39.609375 30 C 40.78125 30 41.953125 30.703125 42.890625 32.109375 C 44.0625 33.28125 44.53125 34.6875 44.53125 35.625 C 44.53125 36.796875 44.0625 37.734375 43.125 38.671875 C 42.1875 39.609375 41.015625 39.84375 39.84375 39.84375 C 38.671875 39.609375 37.5 38.90625 36.5625 37.734375 C 35.859375 37.03125 35.625 36.328125 35.390625 35.625 C 35.15625 34.921875 35.15625 34.21875 35.15625 33.75 C 35.390625 32.578125 35.859375 31.640625 36.5625 30.9375 Z M 37.96875 36.328125 C 39.609375 38.203125 41.015625 38.4375 42.1875 37.265625 C 42.890625 36.5625 43.125 35.859375 42.890625 35.15625 C 42.65625 34.453125 42.1875 33.75 41.71875 33.046875 C 41.25 32.34375 40.546875 31.875 39.84375 31.640625 C 39.140625 31.171875 38.203125 31.40625 37.5 32.109375 C 37.03125 32.578125 36.796875 32.8125 36.796875 33.515625 C 36.796875 33.984375 36.796875 34.453125 37.03125 34.921875 C 37.265625 35.390625 37.5 35.859375 37.96875 36.328125 Z M 37.96875 36.328125 " fill-opacity="1" fill-rule="nonzero"/><path fill="#ffffff" d="M 49.21875 31.875 L 45.9375 26.25 L 45 26.71875 C 44.765625 26.71875 44.765625 26.953125 45 27.1875 L 45.234375 27.890625 L 43.828125 28.59375 L 42.65625 26.484375 L 49.21875 22.5 L 50.390625 24.609375 L 49.21875 25.546875 L 48.984375 24.84375 C 48.984375 24.609375 48.75 24.609375 48.75 24.609375 C 48.75 24.609375 48.515625 24.609375 48.28125 24.609375 L 47.34375 25.078125 L 50.859375 31.171875 L 51.796875 30.703125 L 52.5 31.875 L 48.984375 33.984375 L 48.28125 32.8125 L 48.984375 32.34375 C 49.21875 32.34375 49.21875 32.109375 49.21875 31.875 Z M 49.21875 31.875 " fill-opacity="1" fill-rule="nonzero"/><path fill="#ffffff" d="M 52.5 20.859375 L 56.25 19.6875 C 58.125 18.984375 59.53125 19.453125 60 20.859375 C 60.234375 21.796875 60 22.5 59.296875 23.203125 C 62.109375 22.96875 63.75 27.1875 59.296875 28.828125 L 55.3125 30.234375 L 54.84375 29.0625 L 55.3125 28.828125 C 55.546875 28.59375 55.546875 28.59375 55.546875 28.359375 L 53.203125 22.03125 L 52.5 22.265625 Z M 55.3125 21.328125 L 56.25 23.90625 L 57.1875 23.4375 C 58.359375 22.96875 58.59375 22.265625 58.359375 21.5625 C 58.125 20.625 57.1875 20.625 56.484375 20.859375 Z M 56.71875 25.078125 L 57.65625 27.890625 L 59.0625 27.421875 C 60.234375 26.953125 60.703125 26.25 60.234375 25.3125 C 59.765625 24.375 59.0625 24.140625 57.890625 24.609375 Z M 56.71875 25.078125 " fill-opacity="1" fill-rule="nonzero"/><path fill="#ffffff" d="M 64.921875 25.546875 L 66.328125 18.515625 L 65.390625 18.515625 L 65.15625 17.34375 L 68.4375 16.875 L 72.421875 24.84375 L 73.359375 24.84375 L 73.59375 26.015625 L 69.84375 26.484375 L 69.609375 25.3125 L 70.078125 25.3125 C 70.3125 25.3125 70.3125 25.3125 70.3125 25.078125 C 70.3125 25.078125 70.3125 24.84375 70.3125 24.84375 L 69.84375 23.90625 L 66.328125 24.375 L 66.09375 25.78125 L 67.03125 25.78125 L 67.265625 26.953125 L 63.984375 27.421875 L 63.75 26.25 L 64.21875 26.25 C 64.6875 25.78125 64.921875 25.78125 64.921875 25.546875 Z M 67.734375 18.515625 L 67.03125 22.734375 L 69.84375 22.5 Z M 67.734375 18.515625 " fill-opacity="1" fill-rule="nonzero"/><path fill="#ffffff" d="M 82.265625 26.484375 L 75.234375 26.015625 L 75.234375 24.84375 L 75.703125 24.84375 C 75.9375 24.84375 76.171875 24.609375 76.171875 24.375 L 76.640625 17.578125 L 75.703125 17.578125 L 75.703125 16.40625 L 79.6875 16.640625 L 79.6875 17.8125 L 79.21875 17.8125 C 78.984375 17.8125 78.75 18.046875 78.75 18.28125 L 78.28125 24.84375 L 80.625 25.078125 C 80.859375 25.078125 80.859375 25.078125 80.859375 25.078125 C 80.859375 25.078125 80.859375 24.84375 80.859375 24.609375 L 80.859375 23.671875 L 82.265625 23.90625 Z M 82.265625 26.484375 " fill-opacity="1" fill-rule="nonzero"/><path fill="#ffffff" d="M 90.703125 28.828125 L 83.90625 26.953125 L 84.375 25.78125 L 84.84375 25.78125 C 85.078125 25.78125 85.3125 25.78125 85.3125 25.546875 L 87.1875 18.984375 L 86.25 18.75 L 86.71875 17.578125 L 90.234375 18.515625 L 90 19.6875 L 89.53125 19.6875 C 89.296875 19.6875 89.0625 19.6875 89.0625 19.921875 L 87.421875 26.25 L 89.765625 26.953125 C 90 26.953125 90 26.953125 90 26.953125 C 90 26.953125 90 26.71875 90.234375 26.71875 L 90.46875 25.78125 L 91.875 26.25 Z M 90.703125 28.828125 " fill-opacity="1" fill-rule="nonzero"/><path fill="#ffffff" d="M 105.703125 27.1875 C 105.703125 26.71875 102.890625 24.140625 100.546875 27.890625 C 98.90625 30.703125 100.078125 32.34375 101.953125 32.8125 C 102.1875 32.8125 102.1875 32.8125 102.421875 32.8125 C 102.421875 32.8125 102.65625 32.578125 102.65625 32.578125 L 103.359375 31.640625 L 104.53125 32.578125 L 103.125 34.6875 C 100.3125 34.453125 96.09375 31.875 98.90625 26.953125 C 99.375 26.25 99.84375 25.546875 100.546875 25.078125 C 102.1875 23.90625 104.0625 23.90625 105.46875 25.078125 C 106.40625 25.546875 106.875 26.25 107.578125 26.953125 L 106.171875 29.0625 L 104.765625 28.359375 L 105.46875 27.421875 C 105.703125 27.421875 105.703125 27.1875 105.703125 27.1875 Z M 105.703125 27.1875 " fill-opacity="1" fill-rule="nonzero"/><path fill="#ffffff" d="M 109.921875 41.015625 L 104.765625 36.328125 L 105.46875 35.390625 L 105.9375 35.625 C 106.171875 35.859375 106.40625 35.859375 106.640625 35.625 L 111.328125 30.46875 L 110.625 29.765625 L 111.5625 28.828125 L 114.140625 31.171875 L 113.4375 32.109375 L 112.96875 31.875 C 112.734375 31.640625 112.5 31.640625 112.265625 31.875 L 107.8125 37.03125 L 109.6875 38.671875 C 109.6875 38.671875 109.921875 38.90625 109.921875 38.671875 C 109.921875 38.4375 110.15625 38.671875 110.15625 38.4375 L 110.859375 37.734375 L 111.796875 38.90625 Z M 109.921875 41.015625 " fill-opacity="1" fill-rule="nonzero"/><path fill="#ffffff" d="M 118.828125 39.375 L 114.84375 42.421875 C 113.90625 43.125 113.671875 43.828125 114.609375 45 C 115.3125 45.9375 116.25 46.171875 117.1875 45.46875 L 121.40625 42.1875 L 120.9375 41.484375 L 121.875 40.78125 L 123.984375 43.59375 L 123.046875 44.296875 L 122.8125 43.828125 C 122.578125 43.59375 122.34375 43.59375 122.109375 43.828125 L 118.125 46.875 C 116.484375 48.046875 114.609375 47.34375 113.4375 45.703125 C 112.03125 43.59375 112.265625 42.1875 113.90625 40.78125 L 118.125 37.5 L 117.65625 36.796875 L 118.59375 36.09375 L 120.703125 38.90625 L 120 39.84375 L 119.53125 39.375 C 119.53125 39.375 119.296875 39.140625 119.296875 39.140625 C 119.296875 39.140625 119.0625 39.375 118.828125 39.375 Z M 118.828125 39.375 " fill-opacity="1" fill-rule="nonzero"/><path fill="#ffffff" d="M 126.09375 46.875 L 127.96875 50.625 C 128.90625 52.5 128.671875 53.90625 127.03125 54.609375 C 126.328125 55.078125 125.390625 54.84375 124.6875 54.375 C 124.6875 54.84375 124.6875 55.546875 124.453125 56.015625 C 124.21875 56.484375 123.75 56.953125 123.28125 57.1875 C 121.40625 58.125 120 56.953125 119.0625 55.078125 L 117.1875 50.859375 L 118.359375 50.390625 L 118.59375 50.859375 C 118.828125 51.09375 118.828125 51.09375 119.0625 51.09375 L 125.15625 48.046875 L 124.921875 47.34375 Z M 122.34375 51.328125 L 119.53125 52.734375 L 120.234375 53.90625 C 120.703125 55.078125 121.640625 55.3125 122.34375 54.84375 C 122.8125 54.609375 123.046875 54.375 123.046875 53.90625 C 123.046875 53.4375 123.046875 52.96875 122.8125 52.5 Z M 126.09375 49.6875 L 123.75 50.859375 L 124.21875 51.796875 C 124.453125 52.265625 124.6875 52.734375 125.15625 52.734375 C 125.390625 52.96875 125.859375 52.96875 126.328125 52.734375 C 127.265625 52.265625 127.03125 51.5625 126.796875 50.625 Z M 126.09375 49.6875 " fill-opacity="1" fill-rule="nonzero"/><path fill="#ffffff" d="M 22.03125 99.375 L 22.96875 98.90625 L 23.203125 99.375 C 23.4375 99.609375 23.4375 99.609375 23.671875 99.609375 L 29.53125 96.5625 L 29.296875 95.859375 L 30.234375 95.390625 L 33.515625 101.25 L 31.40625 102.421875 L 30.703125 101.25 L 31.171875 101.015625 C 31.40625 101.015625 31.40625 100.78125 31.40625 100.78125 C 31.40625 100.78125 31.40625 100.546875 31.40625 100.546875 L 30.234375 98.4375 L 28.125 99.609375 L 29.765625 102.65625 L 28.59375 103.359375 L 26.953125 100.3125 L 24.609375 101.71875 L 25.078125 102.890625 L 24.140625 103.359375 Z M 22.03125 99.375 " fill-opacity="1" fill-rule="nonzero"/><path fill="#ffffff" d="M 37.03125 105.703125 C 37.734375 106.640625 37.96875 107.578125 37.96875 108.515625 C 37.96875 109.453125 37.03125 110.625 35.859375 111.5625 C 33.515625 113.4375 31.171875 113.671875 29.53125 111.328125 C 28.828125 110.390625 28.359375 109.21875 28.59375 108.28125 C 28.828125 107.109375 29.53125 106.171875 30.703125 105.234375 C 33.046875 103.359375 35.625 103.828125 37.03125 105.703125 Z M 31.875 106.640625 C 30 108.046875 29.765625 109.453125 30.703125 110.625 C 31.875 112.03125 33.515625 111.328125 34.6875 110.390625 C 35.390625 109.921875 35.859375 109.21875 36.09375 108.75 C 36.328125 108.28125 36.328125 108.046875 36.328125 107.578125 C 36.328125 107.109375 36.09375 106.875 35.859375 106.40625 C 34.921875 105.234375 33.28125 105.703125 31.875 106.640625 Z M 31.875 106.640625 " fill-opacity="1" fill-rule="nonzero"/><path fill="#ffffff" d="M 44.0625 112.96875 C 45 113.671875 45.46875 114.609375 45.46875 115.78125 C 45.46875 116.953125 45 118.125 44.0625 119.296875 C 43.125 120.46875 41.953125 121.171875 40.78125 121.40625 C 39.609375 121.640625 38.671875 121.171875 37.734375 120.46875 C 36.796875 119.765625 36.328125 118.59375 36.328125 117.65625 C 36.328125 116.484375 36.796875 115.3125 37.734375 114.140625 C 39.84375 111.328125 42.1875 111.328125 44.0625 112.96875 Z M 39.140625 114.84375 C 37.734375 116.71875 37.5 118.125 38.671875 119.0625 C 39.375 119.53125 40.078125 119.765625 40.78125 119.296875 C 41.484375 119.0625 41.953125 118.59375 42.65625 117.890625 C 43.125 117.1875 43.59375 116.71875 43.828125 115.78125 C 44.0625 115.3125 44.0625 115.078125 43.828125 114.609375 C 43.59375 114.140625 43.359375 113.90625 43.125 113.4375 C 41.71875 112.734375 40.3125 113.671875 39.140625 114.84375 Z M 39.140625 114.84375 " fill-opacity="1" fill-rule="nonzero"/><path fill="#ffffff" d="M 46.640625 124.21875 L 49.921875 118.59375 L 48.984375 118.125 C 48.75 118.125 48.515625 118.125 48.515625 118.359375 L 48.28125 118.828125 L 46.875 118.125 L 48.046875 116.015625 L 54.375 119.765625 L 53.203125 121.875 L 51.796875 121.171875 L 52.03125 120.703125 C 52.03125 120.46875 52.03125 120.46875 52.03125 120.46875 C 52.03125 120.46875 52.03125 120.234375 51.796875 120.234375 L 51.328125 119.53125 L 48.046875 125.390625 L 48.984375 126.09375 L 48.28125 127.03125 L 44.765625 125.15625 L 45.234375 124.21875 L 45.9375 124.453125 C 46.40625 124.6875 46.40625 124.453125 46.640625 124.21875 Z M 46.640625 124.21875 " fill-opacity="1" fill-rule="nonzero"/><path fill="#ffffff" d="M 55.78125 120.46875 L 59.53125 121.875 C 61.40625 122.578125 62.109375 123.515625 61.640625 125.15625 C 61.40625 125.859375 60.703125 126.5625 59.765625 126.5625 C 60.703125 127.265625 61.171875 128.203125 60.703125 129.140625 C 60 131.015625 58.359375 131.25 56.484375 130.546875 L 52.734375 129.140625 L 53.203125 127.96875 L 53.671875 127.96875 C 53.90625 127.96875 54.140625 127.96875 54.140625 127.734375 L 56.25 121.875 L 55.546875 121.640625 Z M 56.484375 126.09375 L 55.546875 128.90625 L 56.71875 129.375 C 57.890625 129.84375 58.59375 129.609375 58.828125 128.671875 C 59.0625 127.734375 58.59375 127.03125 57.65625 126.796875 Z M 57.890625 122.578125 L 56.953125 124.921875 L 57.890625 125.15625 C 60 125.859375 60.9375 123.515625 58.828125 122.8125 Z M 57.890625 122.578125 " fill-opacity="1" fill-rule="nonzero"/><path fill="#ffffff" d="M 63.75 131.015625 L 66.796875 124.921875 L 65.859375 124.6875 L 66.09375 123.515625 L 69.375 123.984375 L 71.015625 132.421875 L 71.71875 132.65625 L 71.484375 133.828125 L 67.96875 133.359375 L 68.203125 132.1875 L 68.671875 132.1875 C 68.90625 132.1875 68.90625 132.1875 68.90625 132.1875 C 68.90625 132.1875 68.90625 131.953125 68.90625 131.953125 L 68.671875 131.015625 L 65.625 130.546875 L 64.921875 131.71875 L 65.859375 131.953125 L 65.625 133.125 L 62.34375 132.65625 L 62.578125 131.484375 L 63.046875 131.484375 C 63.28125 131.484375 63.515625 131.25 63.75 131.015625 Z M 67.96875 125.390625 L 66.09375 129.140625 L 68.671875 129.609375 Z M 67.96875 125.390625 " fill-opacity="1" fill-rule="nonzero"/><path fill="#ffffff" d="M 81.328125 133.359375 L 74.765625 133.828125 L 74.765625 132.65625 L 75.234375 132.65625 C 75.46875 132.65625 75.703125 132.421875 75.703125 132.1875 L 75.46875 125.625 L 74.765625 125.625 L 74.765625 124.453125 L 78.046875 124.21875 L 78.046875 125.390625 L 77.578125 125.390625 C 77.34375 125.390625 77.109375 125.625 77.109375 125.859375 L 77.34375 132.1875 L 79.6875 131.953125 C 79.921875 131.953125 79.921875 131.953125 79.921875 131.71875 C 79.921875 131.71875 79.921875 131.484375 79.921875 131.484375 L 79.921875 130.546875 L 81.328125 130.546875 Z M 81.328125 133.359375 " fill-opacity="1" fill-rule="nonzero"/><path fill="#ffffff" d="M 91.171875 131.484375 L 84.609375 132.890625 L 84.375 131.71875 L 84.84375 131.484375 C 85.078125 131.484375 85.3125 131.25 85.078125 131.015625 L 83.671875 124.6875 L 82.96875 124.921875 L 82.734375 123.75 L 86.015625 123.046875 L 86.25 124.21875 L 85.78125 124.21875 C 85.546875 124.21875 85.3125 124.453125 85.546875 124.6875 L 86.953125 130.78125 L 89.296875 130.3125 C 89.53125 130.3125 89.53125 130.3125 89.53125 130.078125 C 89.53125 129.84375 89.53125 129.84375 89.53125 129.84375 L 89.0625 128.90625 L 90.46875 128.671875 Z M 91.171875 131.484375 " fill-opacity="1" fill-rule="nonzero"/><path fill="#ffffff" d="M 100.078125 119.0625 C 99.84375 118.828125 97.734375 119.53125 97.5 121.171875 C 97.5 121.875 97.5 122.8125 98.203125 123.75 C 99.609375 126.5625 101.71875 126.328125 102.890625 124.921875 C 103.125 124.6875 103.125 124.6875 103.125 124.6875 C 103.125 124.6875 103.125 124.453125 103.125 124.453125 L 102.65625 123.515625 L 104.0625 122.8125 L 105.234375 124.921875 C 104.296875 126.328125 101.71875 127.96875 99.609375 127.265625 C 98.671875 126.796875 97.734375 126.09375 96.796875 124.6875 C 96.328125 123.984375 96.09375 123.28125 96.09375 122.578125 C 96.09375 121.875 96.09375 121.171875 96.328125 120.703125 C 97.03125 118.828125 99.140625 117.65625 101.015625 117.65625 L 102.1875 119.765625 L 100.78125 120.234375 L 100.3125 119.296875 C 100.078125 119.0625 100.078125 119.0625 100.078125 119.0625 Z M 100.078125 119.0625 " fill-opacity="1" fill-rule="nonzero"/><path fill="#ffffff" d="M 113.4375 119.0625 L 108.28125 123.28125 L 107.578125 122.34375 L 107.8125 121.875 C 108.046875 121.640625 108.046875 121.40625 107.8125 121.40625 L 103.828125 116.25 L 103.125 116.71875 L 102.421875 115.78125 L 105 113.671875 L 105.703125 114.609375 L 105.46875 114.84375 C 105.234375 115.078125 105.234375 115.3125 105.46875 115.546875 L 109.453125 120.46875 L 111.328125 119.0625 C 111.328125 119.0625 111.5625 118.828125 111.5625 118.828125 C 111.5625 118.828125 111.5625 118.59375 111.328125 118.59375 L 110.625 117.890625 L 111.796875 117.1875 Z M 113.4375 119.0625 " fill-opacity="1" fill-rule="nonzero"/><path fill="#ffffff" d="M 111.5625 110.15625 L 115.078125 113.203125 C 116.015625 113.90625 116.71875 113.90625 117.65625 112.96875 C 118.359375 112.03125 118.359375 111.328125 117.65625 110.390625 L 113.90625 106.875 L 113.4375 107.34375 L 112.5 106.640625 L 114.609375 104.0625 L 115.546875 104.765625 L 114.84375 105.46875 C 114.609375 105.703125 114.609375 105.9375 114.84375 105.9375 L 118.59375 109.21875 C 120 110.625 119.765625 112.265625 118.359375 113.90625 C 116.953125 115.546875 115.3125 115.78125 113.671875 114.375 L 110.15625 111.09375 L 109.6875 111.5625 L 108.75 110.859375 L 111.09375 108.28125 L 112.03125 108.984375 L 111.796875 109.453125 C 111.796875 109.6875 111.5625 109.6875 111.5625 109.6875 C 111.328125 109.921875 111.328125 109.921875 111.5625 110.15625 Z M 111.5625 110.15625 " fill-opacity="1" fill-rule="nonzero"/><path fill="#ffffff" d="M 115.3125 103.125 L 117.421875 99.609375 C 119.296875 96.328125 122.109375 98.203125 122.109375 100.3125 C 123.984375 98.4375 127.96875 100.546875 125.390625 104.53125 L 123.28125 107.8125 L 122.34375 107.109375 L 122.578125 106.640625 C 122.578125 106.40625 122.578125 106.171875 122.34375 106.171875 L 116.71875 103.125 L 116.25 103.828125 Z M 117.65625 101.484375 L 119.765625 102.890625 L 120.234375 101.953125 C 120.46875 101.484375 120.703125 101.015625 120.703125 100.78125 C 120.46875 100.078125 119.296875 98.90625 118.125 100.78125 Z M 120.9375 103.59375 L 123.515625 105 L 124.21875 103.828125 C 125.390625 101.953125 123.515625 101.015625 122.8125 101.25 C 122.34375 101.484375 122.109375 101.71875 121.875 102.1875 Z M 120.9375 103.59375 " fill-opacity="1" fill-rule="nonzero"/><g clip-path="url(#ec460e5741)"><g clip-path="url(#a6aa04e49f)"><path fill="url(#050ad380ea)" d="M 104.296875 45.703125 L 104.296875 104.296875 L 45.703125 104.296875 L 45.703125 45.703125 Z M 104.296875 45.703125 " fill-rule="nonzero"/></g></g><path fill="#d6d4d4" d="M 81.082031 63.535156 L 81.507812 63.339844 L 87.75 76.980469 L 87.324219 77.175781 Z M 81.082031 63.535156 " fill-opacity="1" fill-rule="nonzero"/><path fill="#bababa" d="M 81.285156 63.34375 L 81.714844 63.148438 L 87.957031 76.789062 L 87.527344 76.984375 Z M 81.285156 63.34375 " fill-opacity="1" fill-rule="nonzero"/><path fill="#d6d4d4" d="M 100.148438 67.207031 L 100.574219 67.40625 L 94.296875 81.027344 L 93.871094 80.832031 Z M 100.148438 67.207031 " fill-opacity="1" fill-rule="nonzero"/><path fill="#bababa" d="M 100.453125 67.1875 L 100.878906 67.382812 L 94.601562 81.003906 L 94.175781 80.808594 Z M 100.453125 67.1875 " fill-opacity="1" fill-rule="nonzero"/><path fill="#d6d4d4" d="M 85.589844 82.878906 L 85.824219 82.472656 L 98.820312 89.960938 L 98.585938 90.367188 Z M 85.589844 82.878906 " fill-opacity="1" fill-rule="nonzero"/><path fill="#bababa" d="M 85.65625 82.441406 L 85.890625 82.035156 L 98.886719 89.523438 L 98.652344 89.929688 Z M 85.65625 82.441406 " fill-opacity="1" fill-rule="nonzero"/><path fill="#d6d4d4" d="M 62.054688 79.890625 L 62.300781 80.289062 L 49.53125 88.15625 L 49.285156 87.757812 Z M 62.054688 79.890625 " fill-opacity="1" fill-rule="nonzero"/><path fill="#bababa" d="M 62.125 80.320312 L 62.371094 80.71875 L 49.601562 88.589844 L 49.355469 88.191406 Z M 62.125 80.320312 " fill-opacity="1" fill-rule="nonzero"/><path fill="#d6d4d4" d="M 87.167969 91.101562 L 87.511719 91.421875 L 77.273438 102.386719 L 76.933594 102.066406 Z M 87.167969 91.101562 " fill-opacity="1" fill-rule="nonzero"/><path fill="#bababa" d="M 87.585938 91.484375 L 87.929688 91.804688 L 77.691406 102.765625 L 77.347656 102.445312 Z M 87.585938 91.484375 " fill-opacity="1" fill-rule="nonzero"/><path fill="#d6d4d4" d="M 59.871094 89.628906 L 60.25 89.351562 L 69.121094 101.449219 L 68.742188 101.726562 Z M 59.871094 89.628906 " fill-opacity="1" fill-rule="nonzero"/><path fill="#bababa" d="M 60.101562 89.429688 L 60.476562 89.152344 L 69.347656 101.25 L 68.972656 101.527344 Z M 60.101562 89.429688 " fill-opacity="1" fill-rule="nonzero"/><path fill="#d6d4d4" d="M 69.867188 62.878906 L 70.25 63.144531 L 61.722656 75.484375 L 61.339844 75.21875 Z M 69.867188 62.878906 " fill-opacity="1" fill-rule="nonzero"/><path fill="#bababa" d="M 70.089844 63.074219 L 70.476562 63.339844 L 61.949219 75.683594 L 61.5625 75.414062 Z M 70.089844 63.074219 " fill-opacity="1" fill-rule="nonzero"/><path fill="#d6d4d4" d="M 54.261719 57.027344 L 54.210938 56.558594 L 69.113281 54.847656 L 69.164062 55.3125 Z M 54.261719 57.027344 " fill-opacity="1" fill-rule="nonzero"/><path fill="#bababa" d="M 54.101562 56.648438 L 54.046875 56.183594 L 68.949219 54.46875 L 69.003906 54.933594 Z M 54.101562 56.648438 " fill-opacity="1" fill-rule="nonzero"/><path fill="#d6d4d4" d="M 82.617188 55.167969 L 82.765625 54.722656 L 96.980469 59.515625 L 96.828125 59.960938 Z M 82.617188 55.167969 " fill-opacity="1" fill-rule="nonzero"/><path fill="#bababa" d="M 82.785156 54.96875 L 82.9375 54.523438 L 97.148438 59.316406 L 97 59.761719 Z M 82.785156 54.96875 " fill-opacity="1" fill-rule="nonzero"/><path fill="#d6d4d4" d="M 76.40625 44.53125 L 76.875 44.53125 L 76.875 59.53125 L 76.40625 59.53125 Z M 76.40625 44.53125 " fill-opacity="1" fill-rule="nonzero"/><path fill="#bababa" d="M 76.640625 44.765625 L 77.109375 44.765625 L 77.109375 59.765625 L 76.640625 59.765625 Z M 76.640625 44.765625 " fill-opacity="1" fill-rule="nonzero"/><path fill="#d6d4d4" d="M 49.167969 64.234375 L 49.59375 64.039062 L 55.753906 77.71875 L 55.324219 77.910156 Z M 49.167969 64.234375 " fill-opacity="1" fill-rule="nonzero"/><path fill="#bababa" d="M 49.46875 64.257812 L 49.894531 64.066406 L 56.054688 77.742188 L 55.625 77.933594 Z M 49.46875 64.257812 " fill-opacity="1" fill-rule="nonzero"/><path fill="#d6d4d4" d="M 67.074219 85.300781 L 67.109375 84.832031 L 82.066406 86.007812 L 82.027344 86.476562 Z M 67.074219 85.300781 " fill-opacity="1" fill-rule="nonzero"/><path fill="#bababa" d="M 67.214844 84.984375 L 67.25 84.515625 L 82.207031 85.691406 L 82.167969 86.160156 Z M 67.214844 84.984375 " fill-opacity="1" fill-rule="nonzero"/><path fill="#010068" d="M 56.953125 52.96875 L 56.953125 56.25 C 54.375 58.828125 52.265625 62.109375 50.390625 65.859375 L 47.109375 66.796875 L 51.09375 58.828125 Z M 56.953125 52.96875 " fill-opacity="1" fill-rule="nonzero"/><path fill="#010068" d="M 76.40625 50.15625 L 76.875 50.15625 L 85.546875 55.78125 L 81.5625 64.921875 L 68.90625 64.21875 L 66.796875 55.3125 Z M 76.40625 50.15625 " fill-opacity="1" fill-rule="nonzero"/><path fill="#ffffff" d="M 82.96875 56.484375 L 80.859375 63.75 L 84.140625 56.25 L 76.640625 51.328125 Z M 82.96875 56.484375 " fill-opacity="1" fill-rule="nonzero"/><path fill="#010068" d="M 63.046875 74.0625 L 53.90625 74.0625 L 52.96875 86.015625 L 61.40625 91.640625 L 68.671875 84.84375 Z M 63.046875 74.0625 " fill-opacity="1" fill-rule="nonzero"/><path fill="#ffffff" d="M 61.875 75.9375 L 67.265625 84.609375 L 62.34375 75.234375 L 54.84375 75.234375 Z M 61.875 75.9375 " fill-opacity="1" fill-rule="nonzero"/><path fill="#010068" d="M 86.953125 75.703125 L 80.15625 86.015625 L 85.546875 93.28125 L 95.859375 88.359375 L 95.859375 77.34375 Z M 86.953125 75.703125 " fill-opacity="1" fill-rule="nonzero"/><path fill="#ffffff" d="M 93.984375 78.984375 L 94.6875 87.65625 L 94.6875 78.28125 L 87.421875 76.875 Z M 93.984375 78.984375 " fill-opacity="1" fill-rule="nonzero"/><path fill="#010068" d="M 95.625 55.3125 L 94.921875 58.59375 C 97.03125 61.640625 98.90625 64.921875 100.078125 68.671875 L 103.125 69.375 L 99.375 60 Z M 95.625 55.3125 " fill-opacity="1" fill-rule="nonzero"/><path fill="#010068" d="M 82.03125 102.421875 L 79.6875 100.078125 C 75.46875 100.546875 71.25 100.078125 67.03125 99.140625 L 63.515625 100.546875 L 69.140625 103.359375 L 77.578125 103.59375 Z M 82.03125 102.421875 " fill-opacity="1" fill-rule="nonzero"/><path fill="#010068" d="M 43.125 75 C 43.125 92.578125 57.421875 106.875 75 106.875 C 92.578125 106.875 106.875 92.578125 106.875 75 C 106.875 57.421875 92.578125 43.125 75 43.125 C 57.421875 43.125 43.125 57.421875 43.125 75 Z M 47.34375 75 C 47.34375 59.765625 59.765625 47.34375 75 47.34375 C 90.234375 47.34375 102.65625 59.765625 102.65625 75 C 102.65625 90.234375 90.234375 102.65625 75 102.65625 C 59.765625 102.65625 47.34375 90.234375 47.34375 75 Z M 47.34375 75 " fill-opacity="1" fill-rule="nonzero"/></svg>