<svg width="32" height="32" viewBox="0 0 32 32" fill="none" xmlns="http://www.w3.org/2000/svg">
  <!-- Background Circle -->
  <circle cx="16" cy="16" r="16" fill="#003DA5"/>

  <!-- Football/Soccer Ball Design -->
  <g transform="translate(16, 16)">
    <!-- White Circle Background for Ball -->
    <circle cx="0" cy="0" r="10" fill="#FFFFFF"/>

    <!-- Pentagon Center -->
    <path d="M 0,-4 L 3.8,-1.2 L 2.4,3.2 L -2.4,3.2 L -3.8,-1.2 Z" fill="#003DA5"/>

    <!-- Pentagon Edges (Hexagons) -->
    <path d="M 0,-4 L 3.8,-1.2 L 5.5,-4.5 L 3,-7 L 0,-6 Z" fill="#A50034"/>
    <path d="M 3.8,-1.2 L 2.4,3.2 L 6.5,4 L 8,0 L 5.5,-4.5 Z" fill="#A50034"/>
    <path d="M 2.4,3.2 L -2.4,3.2 L -3.5,7.5 L 2.5,7.5 L 6.5,4 Z" fill="#A50034"/>
    <path d="M -2.4,3.2 L -3.8,-1.2 L -8,0 L -6.5,4 L -3.5,7.5 Z" fill="#A50034"/>
    <path d="M -3.8,-1.2 L 0,-4 L 0,-6 L -3,-7 L -5.5,-4.5 L -8,0 Z" fill="#A50034"/>
  </g>
</svg>
